<?xml version="1.0" encoding="utf-8"?>
<!-- Generator: Adobe Illustrator 22.1.0, SVG Export Plug-In . SVG Version: 6.00 Build 0)  -->
<svg version="1.1" id="Layer_1" xmlns="http://www.w3.org/2000/svg" xmlns:xlink="http://www.w3.org/1999/xlink" x="0px" y="0px"
	 viewBox="0 0 841.9 595.3" style="enable-background:new 0 0 841.9 595.3;" xml:space="preserve">
<style type="text/css">
	.st0{fill-rule:evenodd;clip-rule:evenodd;fill:#00884F;}
	.st1{fill-rule:evenodd;clip-rule:evenodd;fill:#BE9C4A;}
</style>
<g>
	<polygon class="st0" points="99,309.2 99,330.7 136.4,330.7 136.4,359.1 99,359.1 99,409.8 64.9,409.8 64.9,280.8 140.2,280.8 
		140.2,309.2 	"/>
	<path class="st0" d="M173.2,285.5c3.1,3,4.6,6.7,4.6,10.9c0,4.3-1.6,7.9-4.6,11c-3.1,3-6.8,4.6-11.1,4.6c-4.3,0-8-1.5-11.1-4.6
		c-3.1-3-4.6-6.7-4.6-11c0-4.3,1.6-8,4.6-11c3.1-3.1,6.8-4.6,11.1-4.6C166.4,280.9,170.1,282.5,173.2,285.5L173.2,285.5z
		 M177.9,409.8L177.9,409.8h-31.6V322h31.6V409.8z"/>
	<path class="st0" d="M612.8,285.5c3.1,3,4.6,6.7,4.6,10.9c0,4.3-1.5,7.9-4.6,11c-3.1,3-6.8,4.6-11.1,4.6s-8-1.5-11.1-4.6
		c-3.1-3-4.6-6.7-4.6-11c0-4.3,1.5-8,4.6-11c3.1-3.1,6.8-4.6,11.1-4.6C606,280.9,609.8,282.5,612.8,285.5L612.8,285.5z M617.5,409.8
		L617.5,409.8h-31.6V322h31.6V409.8z"/>
	<path class="st0" d="M218.1,333.3h0.3c3.7-5.3,7.9-8.9,12.4-11c4.6-2.1,10-3.1,16.1-3.1c12.1,0,20.6,3.4,25.8,10.1
		c5.1,6.7,7.7,15.5,7.7,26.3v54.1h-31.6V367c0-0.2,0-0.5,0-0.8c0-0.3,0-0.7,0-1c0-1,0-2.1,0-3.2c0-1.2-0.1-2.3-0.2-3.4
		c-0.2-3.5-1.3-6.8-3.1-9.8c-1.8-3-5.5-4.5-11-4.5c-6.4,0-10.7,2-13,6.1c-2.3,4-3.5,8.8-3.5,14.3v45.3h-31.7V322h31.7V333.3z"/>
	<path class="st0" d="M433.8,333.3h0.3c3.7-5.3,7.9-8.9,12.4-11c4.6-2.1,9.9-3.1,16.1-3.1c12,0,20.7,3.4,25.8,10.1
		c5.1,6.7,7.8,15.5,7.8,26.3v54.1h-31.7V367c0-0.2,0-0.5,0-0.8c0-0.3,0-0.7,0-1c0-1,0-2.1,0-3.2c0-1.2-0.1-2.3-0.2-3.4
		c-0.2-3.5-1.3-6.8-3.1-9.8s-5.5-4.5-11-4.5c-6.4,0-10.7,2-13,6.1c-2.3,4-3.5,8.8-3.5,14.3v45.3h-31.6V322h31.6V333.3z"/>
	<path class="st0" d="M575.1,324.2v26.3c-2.3-1.6-4.9-3-7.7-4.2c-2.8-1.2-5.7-1.8-8.7-1.8c-6,0-11.1,2.1-15.4,6.1
		c-4.2,4.1-6.3,9.2-6.3,15.2c0,6.3,2.1,11.4,6.3,15.5c4.2,4.1,9.5,6.1,16,6.1c0.6,0,1.2,0,1.8-0.1c0.6-0.1,1.2-0.1,1.8-0.3
		c2.2-0.3,4.4-1,6.5-2c2.1-1,4-2.2,5.6-3.7v26.2c-3.5,1.7-7.1,3-10.8,3.8c-3.8,0.8-7.6,1.2-11.4,1.2c-13.2,0-24.6-4.3-34.2-12.9
		c-9.6-8.6-14.4-19.5-14.4-32.8c0-14.1,4.8-25.7,14.4-34.5c9.6-8.8,21.5-13.2,35.5-13.2c3.7,0,7.3,0.4,10.9,1.3
		c3.6,0.8,6.9,2.1,10,3.8V324.2z"/>
	<path class="st0" d="M729.6,409.8h-31.6v-6.9c0,0-8.3,9.8-27.3,9.8c-13.7,0-24-4.7-32.4-14c-8.4-9.3-12.6-20.2-12.6-32.8
		c0-12.5,4.2-23.5,12.4-32.8c8.3-9.3,19.1-13.9,32.3-13.9c0.6,0,1.1,0,1.7,0c0.6,0,1.2,0.1,1.7,0.2c4.5,0.3,14.8,0.6,24.2,7.1V322
		h31.6V409.8z M660.4,350.5L660.4,350.5c-3.8,4.2-5.7,9.1-5.7,14.8c0,5.9,1.9,10.9,5.7,14.9c3.8,4,9.2,6,15.9,6c6.9,0,12.2-2,16-6
		c3.7-4,5.6-9.1,5.6-15c0-5.7-1.9-10.7-5.6-14.9c-3.8-4.2-9.1-6.3-16-6.3C669.6,344.2,664.2,346.3,660.4,350.5L660.4,350.5z"/>
	<path class="st0" d="M393.4,409.8h-31.7v-6.9c0,0-8.3,9.8-27.3,9.8c-13.7,0-24-4.7-32.4-14c-8.4-9.3-12.6-20.2-12.6-32.8
		c0-12.5,4.2-23.5,12.4-32.8c8.3-9.3,19.1-13.9,32.3-13.9c0.6,0,1.1,0,1.7,0s1.2,0.1,1.7,0.2c4.5,0.3,14.8,0.6,24.2,7.1V322h31.7
		V409.8z M324.2,350.5L324.2,350.5c-3.8,4.2-5.7,9.1-5.7,14.8c0,5.9,1.9,10.9,5.7,14.9c3.8,4,9.1,6,15.9,6c6.9,0,12.2-2,15.9-6
		c3.7-4,5.6-9.1,5.6-15c0-5.7-1.9-10.7-5.6-14.9c-3.7-4.2-9.1-6.3-15.9-6.3C333.3,344.2,328,346.3,324.2,350.5L324.2,350.5z"/>
	<rect x="740.3" y="280.8" class="st0" width="31.7" height="129"/>
	<polygon class="st0" points="577.1,274.4 417.9,126.6 259.8,274.4 354.4,274.4 361.6,280.8 447.4,200.2 384,200.2 328.5,251.2 
		342.4,263.6 287.2,263.6 418,141.4 549.6,263.6 492.9,263.6 506.8,251.2 457.3,206.1 425.4,235.7 473.6,280.8 480.8,274.4 	"/>
	<rect x="64.9" y="426.1" class="st1" width="707.1" height="52.2"/>
	<rect x="255.8" y="438.9" class="st0" width="7.9" height="28.2"/>
	<path class="st0" d="M309.3,467.1H302l-1.7-12.2c-0.1-0.8-0.3-1.8-0.3-2.9c-0.1-1.1-0.2-2.2-0.3-3.5c-0.2,1.2-0.5,2.7-1.1,4.5
		c-0.1,0.4-0.2,0.7-0.2,0.8l-3.9,13.2h-5.2l-3.9-13.2c0-0.2-0.1-0.5-0.2-0.8c-0.6-1.8-0.9-3.2-1.1-4.5c-0.1,1.1-0.2,2.1-0.3,3.2
		c-0.1,1.1-0.3,2.1-0.4,3.1l-1.7,12.2h-7.3l4.4-28.2h7.8l4.3,14.5c0,0.1,0.1,0.3,0.2,0.5c0.4,1.3,0.7,2.4,0.7,3.3
		c0.1-0.5,0.2-1.1,0.3-1.7c0.2-0.6,0.3-1.3,0.6-2.2l4.4-14.5h7.8L309.3,467.1z"/>
	<path class="st0" d="M349.4,453.1c0,2-0.4,3.9-1.1,5.7c-0.8,1.8-1.8,3.4-3.3,4.8c-1.5,1.4-3.1,2.5-5,3.2c-1.8,0.8-3.8,1.1-5.9,1.1
		c-2,0-4-0.4-5.9-1.1c-1.8-0.7-3.5-1.8-5-3.2c-1.5-1.4-2.6-3-3.4-4.8c-0.8-1.8-1.1-3.7-1.1-5.7s0.4-3.9,1.1-5.7
		c0.8-1.8,1.9-3.4,3.4-4.8c1.4-1.4,3.1-2.5,5-3.2c1.9-0.8,3.8-1.1,5.9-1.1c2,0,4,0.4,5.9,1.1c1.9,0.7,3.5,1.8,5,3.2
		c1.5,1.4,2.5,3,3.3,4.8C349,449.1,349.4,451,349.4,453.1L349.4,453.1z M334.1,461.3L334.1,461.3c2.2,0,4-0.8,5.4-2.4
		c1.4-1.6,2.1-3.5,2.1-5.9c0-2.3-0.7-4.3-2.2-5.9c-1.4-1.6-3.2-2.4-5.4-2.4s-3.9,0.8-5.4,2.4c-1.4,1.6-2.1,3.5-2.1,5.9
		c0,2.4,0.7,4.4,2.1,6C330.1,460.5,331.9,461.3,334.1,461.3L334.1,461.3z"/>
	<path class="st0" d="M360.7,467.1v-28.2h7.9c3.2,0,5.5,0.1,6.8,0.3c1.3,0.2,2.4,0.6,3.4,1.1c1,0.6,1.9,1.3,2.4,2.3
		c0.6,1,0.8,2.1,0.8,3.4c0,1.6-0.4,2.9-1.2,3.8c-0.8,1-2.2,1.7-4,2.2c2,0.1,3.6,0.8,4.8,2.1c1.2,1.2,1.7,2.9,1.7,5
		c0,1.5-0.3,2.8-1,4c-0.7,1.1-1.6,2-2.8,2.6c-1,0.5-2.2,0.9-3.6,1.1c-1.4,0.2-3.8,0.3-7,0.3H360.7z M367.9,450.2L367.9,450.2h1.6
		c1.9,0,3.2-0.2,4-0.6c0.7-0.4,1.1-1.1,1.1-2.1c0-1.1-0.3-1.8-1-2.3c-0.7-0.4-2-0.6-3.9-0.6h-1.7V450.2z M367.9,461.3L367.9,461.3
		h2.7c1.9,0,3.2-0.2,4-0.7c0.8-0.4,1.1-1.2,1.1-2.3c0-1.2-0.3-2-1-2.5c-0.7-0.5-2-0.7-3.9-0.7h-2.9V461.3z"/>
	<rect x="394.5" y="438.9" class="st0" width="7.9" height="28.2"/>
	<polygon class="st0" points="415.1,467.1 415.1,438.9 422.9,438.9 422.9,460.5 432.7,460.5 432.7,467.1 	"/>
	<rect x="443.1" y="438.9" class="st0" width="7.9" height="28.2"/>
	<path class="st0" d="M460.3,467.1l9.9-28.2h9.8l9.9,28.2h-7.8l-1.5-5h-11.1l-1.5,5H460.3z M471.3,456.6L471.3,456.6h7.8l-2.9-9.3
		c-0.1-0.3-0.2-0.8-0.4-1.4c-0.2-0.6-0.4-1.5-0.6-2.4c-0.2,0.7-0.3,1.3-0.5,2c-0.2,0.6-0.3,1.2-0.5,1.8L471.3,456.6z"/>
	<path class="st0" d="M499.1,467.1v-28.2h8.2c3.2,0,5.4,0.1,6.7,0.4c1.3,0.3,2.4,0.8,3.3,1.5c1,0.8,1.8,1.8,2.4,3
		c0.6,1.2,0.8,2.5,0.8,4c0,2.2-0.5,4-1.6,5.3c-1.1,1.3-2.7,2.2-4.8,2.7l7.8,11.4H513l-6.6-11v11H499.1z M506.4,452.2L506.4,452.2
		h1.5c1.7,0,2.9-0.3,3.7-0.9c0.8-0.6,1.1-1.5,1.1-2.6c0-1.4-0.3-2.4-1.1-3c-0.7-0.6-1.9-0.9-3.6-0.9h-1.6V452.2z"/>
	<rect x="531.4" y="438.9" class="st0" width="7.9" height="28.2"/>
	<path class="st0" d="M548.6,467.1l9.9-28.2h9.8l9.9,28.2h-7.7l-1.5-5h-11.1l-1.5,5H548.6z M559.6,456.6L559.6,456.6h7.8l-2.9-9.3
		c-0.1-0.3-0.2-0.8-0.4-1.4c-0.2-0.6-0.4-1.5-0.6-2.4c-0.2,0.7-0.3,1.3-0.5,2c-0.1,0.6-0.3,1.2-0.5,1.8L559.6,456.6z"/>
	<polygon class="st0" points="480.8,435 475.3,437.3 474.2,434.9 479.7,432.5 	"/>
</g>
</svg>
